<svg width="134" height="43" viewBox="0 0 134 43" fill="none" xmlns="http://www.w3.org/2000/svg">
<g clip-path="url(#clip0_64749_1969)">
<path fill-rule="evenodd" clip-rule="evenodd" d="M0.625544 34.4491C0.498948 34.5646 0.37838 34.6861 0.257812 34.8077V27.8059C1.40923 27.3379 2.65711 27.0522 3.95924 26.9975H3.98336C4.13407 26.9975 4.28478 26.9853 4.43549 26.9853C4.58619 26.9853 4.7369 26.9853 4.88761 26.9975H7.87769C8.73373 26.9975 9.54756 26.7909 10.2649 26.4262C10.7954 26.1587 11.2717 25.8001 11.6816 25.3808C13.9483 23.3143 14.9731 20.1233 14.2376 17.0418C13.7433 14.9571 11.555 12.2706 10.2227 10.666C15.2384 11.754 19.0001 16.2517 19.0001 21.6307C19.0001 23.5756 18.5118 25.4051 17.6437 26.9975C15.8291 30.3525 12.3628 32.6622 8.34791 32.8323H8.3238C8.17309 32.8384 8.02238 32.8445 7.87167 32.8445C7.72096 32.8445 7.57025 32.8445 7.41954 32.8323H4.42946C3.57343 32.8323 2.75959 33.039 2.04222 33.4037C1.51172 33.6711 1.03547 34.0297 0.625544 34.4491Z" fill="#2176FF"/>
<mask id="mask0_64749_1969" style="mask-type:luminance" maskUnits="userSpaceOnUse" x="0" y="10" width="19" height="25">
<path d="M0.625544 34.4491C0.498948 34.5646 0.37838 34.6861 0.257812 34.8077V27.8059C1.40923 27.3379 2.65711 27.0522 3.95924 26.9975H3.98336C4.13407 26.9975 4.28478 26.9853 4.43549 26.9853C4.58619 26.9853 4.7369 26.9853 4.88761 26.9975H7.87769C8.73373 26.9975 9.54756 26.7909 10.2649 26.4262C10.7954 26.1587 11.2717 25.8001 11.6816 25.3808C13.9483 23.3143 14.9731 20.1233 14.2376 17.0418C13.7433 14.9571 11.555 12.2706 10.2227 10.666C15.2384 11.754 19.0001 16.2517 19.0001 21.6307C19.0001 23.5756 18.5118 25.4051 17.6437 26.9975C15.8291 30.3525 12.3628 32.6622 8.34791 32.8323H8.3238C8.17309 32.8384 8.02238 32.8445 7.87167 32.8445C7.72096 32.8445 7.57025 32.8445 7.41954 32.8323H4.42946C3.57343 32.8323 2.75959 33.039 2.04222 33.4037C1.51172 33.6711 1.03547 34.0297 0.625544 34.4491Z" fill="white"/>
</mask>
<g mask="url(#mask0_64749_1969)">
<path d="M19.0001 10.666H0.257812V34.8077H19.0001V10.666Z" fill="#2176FF"/>
</g>
<path fill-rule="evenodd" clip-rule="evenodd" d="M6.50761 5.5C6.50761 5.5 7.14662 7.73061 8.82854 10.0828C10.5105 12.441 13.6271 15.9237 12.9098 20.0689C12.6927 21.3331 12.2406 22.3907 11.6317 23.2477C10.6973 24.5544 9.39521 25.381 8.00265 25.7214C7.49627 25.849 6.99591 25.9098 6.50761 25.9098C6.02534 25.9098 5.52499 25.8429 5.01257 25.7214C3.61399 25.381 2.31185 24.5544 1.38348 23.2477C0.774614 22.3967 0.322485 21.3392 0.105463 20.0689C-0.611915 15.9237 2.50476 12.435 4.18668 10.0828C5.8686 7.72453 6.50761 5.5 6.50761 5.5Z" fill="#2176FF"/>
<mask id="mask1_64749_1969" style="mask-type:luminance" maskUnits="userSpaceOnUse" x="0" y="5" width="14" height="21">
<path d="M6.50761 5.5C6.50761 5.5 7.14662 7.73061 8.82854 10.0828C10.5105 12.441 13.6271 15.9237 12.9098 20.0689C12.6927 21.3331 12.2406 22.3907 11.6317 23.2477C10.6973 24.5544 9.39521 25.381 8.00265 25.7214C7.49627 25.849 6.99591 25.9098 6.50761 25.9098C6.02534 25.9098 5.52499 25.8429 5.01257 25.7214C3.61399 25.381 2.31185 24.5544 1.38348 23.2477C0.774614 22.3967 0.322485 21.3392 0.105463 20.0689C-0.611915 15.9237 2.50476 12.435 4.18668 10.0828C5.8686 7.72453 6.50761 5.5 6.50761 5.5Z" fill="white"/>
</mask>
<g mask="url(#mask1_64749_1969)">
<path d="M13.6277 5.5H-0.611328V25.9098H13.6277V5.5Z" fill="#2176FF"/>
</g>
<path d="M26.128 31.5V11.9H33.408C34.7893 11.9 36.012 12.18 37.076 12.74C38.14 13.2813 38.9707 14.0467 39.568 15.036C40.1653 16.0067 40.464 17.136 40.464 18.424C40.464 19.6933 40.1747 20.8227 39.596 21.812C39.0173 22.8013 38.224 23.5853 37.216 24.164C36.208 24.724 35.0413 25.004 33.716 25.004H29.964V31.5H26.128ZM29.964 21.476H33.632C34.4907 21.476 35.1907 21.196 35.732 20.636C36.292 20.0573 36.572 19.32 36.572 18.424C36.572 17.528 36.264 16.8 35.648 16.24C35.0507 15.68 34.276 15.4 33.324 15.4H29.964V21.476ZM42.1671 31.5V11.9H45.8631V31.5H42.1671ZM57.9977 31.5L57.7737 28.924V17.5H61.4697V31.5H57.9977ZM48.5057 24.668V17.5H52.2017V24.668H48.5057ZM52.2017 24.668C52.2017 25.6013 52.3044 26.3387 52.5097 26.88C52.7337 27.4027 53.0417 27.7853 53.4337 28.028C53.8444 28.252 54.3017 28.364 54.8057 28.364C55.7764 28.3827 56.5137 28.0933 57.0177 27.496C57.5217 26.88 57.7737 25.9933 57.7737 24.836H59.0337C59.0337 26.3293 58.8097 27.5987 58.3617 28.644C57.9137 29.6707 57.2977 30.464 56.5137 31.024C55.7297 31.5653 54.8057 31.836 53.7417 31.836C52.6217 31.836 51.6697 31.612 50.8857 31.164C50.1017 30.716 49.5044 30.0253 49.0937 29.092C48.7017 28.14 48.5057 26.9173 48.5057 25.424V24.668H52.2017ZM64.3718 31.5V17.5H67.8438L68.0118 19.32C68.4411 18.6107 68.9918 18.0787 69.6638 17.724C70.3358 17.3507 71.0824 17.164 71.9038 17.164C73.0424 17.164 73.9944 17.4067 74.7598 17.892C75.5438 18.3773 76.1131 19.124 76.4678 20.132C76.8784 19.18 77.4571 18.452 78.2038 17.948C78.9504 17.4253 79.8184 17.164 80.8078 17.164C82.4504 17.164 83.7011 17.6867 84.5598 18.732C85.4184 19.7587 85.8478 21.3453 85.8478 23.492V31.5H82.1518V24.332C82.1518 23.38 82.0491 22.6427 81.8438 22.12C81.6384 21.5973 81.3584 21.224 81.0038 21C80.6491 20.7573 80.2291 20.636 79.7438 20.636C78.8478 20.6173 78.1571 20.9067 77.6718 21.504C77.1864 22.1013 76.9438 22.988 76.9438 24.164V31.5H73.2478V24.332C73.2478 23.38 73.1451 22.6427 72.9398 22.12C72.7531 21.5973 72.4731 21.224 72.0998 21C71.7451 20.7573 71.3251 20.636 70.8398 20.636C69.9438 20.6173 69.2531 20.9067 68.7678 21.504C68.3011 22.1013 68.0678 22.988 68.0678 24.164V31.5H64.3718ZM88.4897 31.5V11.9H92.1857V28.896L91.9897 31.5H88.4897ZM96.4137 31.836C95.2377 31.836 94.2391 31.5373 93.4177 30.94C92.6151 30.3427 91.9991 29.4933 91.5697 28.392C91.1404 27.2907 90.9257 25.9933 90.9257 24.5C90.9257 22.988 91.1404 21.6907 91.5697 20.608C91.9991 19.5067 92.6151 18.6573 93.4177 18.06C94.2391 17.4627 95.2377 17.164 96.4137 17.164C97.7017 17.164 98.8124 17.4627 99.7457 18.06C100.698 18.6573 101.435 19.5067 101.958 20.608C102.48 21.6907 102.742 22.988 102.742 24.5C102.742 25.9933 102.48 27.2907 101.958 28.392C101.435 29.4933 100.698 30.3427 99.7457 30.94C98.8124 31.5373 97.7017 31.836 96.4137 31.836ZM95.4617 28.448C96.1337 28.448 96.7217 28.28 97.2257 27.944C97.7484 27.608 98.1591 27.1413 98.4577 26.544C98.7564 25.9467 98.9057 25.2653 98.9057 24.5C98.9057 23.7347 98.7564 23.0533 98.4577 22.456C98.1777 21.8587 97.7764 21.4013 97.2537 21.084C96.7497 20.748 96.1617 20.58 95.4897 20.58C94.8551 20.58 94.2857 20.748 93.7817 21.084C93.2777 21.42 92.8857 21.8867 92.6057 22.484C92.3257 23.0627 92.1857 23.7347 92.1857 24.5C92.1857 25.2653 92.3257 25.9467 92.6057 26.544C92.8857 27.1413 93.2684 27.608 93.7537 27.944C94.2577 28.28 94.8271 28.448 95.4617 28.448ZM111.449 31.836C110.031 31.836 108.761 31.528 107.641 30.912C106.54 30.2773 105.672 29.4093 105.037 28.308C104.421 27.2067 104.113 25.9373 104.113 24.5C104.113 23.0627 104.421 21.7933 105.037 20.692C105.653 19.5907 106.512 18.732 107.613 18.116C108.715 17.4813 109.975 17.164 111.393 17.164C112.831 17.164 114.1 17.4813 115.201 18.116C116.303 18.732 117.161 19.5907 117.777 20.692C118.393 21.7933 118.701 23.0627 118.701 24.5C118.701 25.9373 118.393 27.2067 117.777 28.308C117.161 29.4093 116.303 30.2773 115.201 30.912C114.119 31.528 112.868 31.836 111.449 31.836ZM111.449 28.42C112.14 28.42 112.747 28.252 113.269 27.916C113.792 27.58 114.193 27.1227 114.473 26.544C114.772 25.9467 114.921 25.2653 114.921 24.5C114.921 23.7347 114.772 23.0627 114.473 22.484C114.175 21.8867 113.755 21.42 113.213 21.084C112.691 20.748 112.084 20.58 111.393 20.58C110.721 20.58 110.115 20.748 109.573 21.084C109.051 21.42 108.64 21.8867 108.341 22.484C108.043 23.0627 107.893 23.7347 107.893 24.5C107.893 25.2653 108.043 25.9467 108.341 26.544C108.64 27.1227 109.06 27.58 109.601 27.916C110.143 28.252 110.759 28.42 111.449 28.42ZM119.031 31.5L124.771 23.492L128.775 17.5H133.143L127.571 25.312L123.455 31.5H119.031ZM129.083 31.5L125.023 25.312L119.395 17.5H123.763L127.767 23.492L133.479 31.5H129.083Z" fill="black"/>
</g>
<defs>
<clipPath id="clip0_64749_1969">
<rect width="134" height="42" fill="white" transform="translate(0 0.5)"/>
</clipPath>
</defs>
</svg>
