<svg width="171" height="28" viewBox="0 0 171 28" fill="none" xmlns="http://www.w3.org/2000/svg">
<path d="M0 27.5429V1.40952H12.964C14.8088 1.40952 16.3377 1.75238 17.5507 2.4381C18.7637 3.12381 19.6735 4.07619 20.28 5.29524C20.9117 6.48889 21.2276 7.91111 21.2276 9.5619C21.2276 11.2127 20.8991 12.673 20.2421 13.9429C19.585 15.1873 18.6247 16.1524 17.3612 16.8381C16.1229 17.5238 14.6066 17.8667 12.8124 17.8667H4.24553V27.5429H0ZM4.24553 14.2095H12.6229C13.9622 14.2095 15.011 13.8032 15.7691 12.9905C16.5525 12.1778 16.9442 11.0476 16.9442 9.6C16.9442 8.63492 16.7799 7.82222 16.4514 7.16191C16.1229 6.47619 15.6427 5.95556 15.011 5.6C14.3792 5.24445 13.5832 5.06667 12.6229 5.06667H4.24553V14.2095Z" fill="white"/>
<path d="M24.3314 27.5429V0H28.2737V27.5429H24.3314Z" fill="white"/>
<path d="M39.1972 28C37.2766 28 35.7225 27.4921 34.5347 26.4762C33.347 25.4349 32.7531 23.6698 32.7531 21.181V7.50476H36.6954V20.5714C36.6954 21.3333 36.7839 21.9683 36.9608 22.4762C37.1629 22.9841 37.4409 23.3905 37.7947 23.6952C38.1485 24 38.5655 24.2159 39.0456 24.3429C39.5258 24.4698 40.0565 24.5333 40.6377 24.5333C41.5474 24.5333 42.3687 24.3175 43.1016 23.8857C43.8597 23.4286 44.4662 22.8064 44.9211 22.019C45.376 21.2064 45.6034 20.2794 45.6034 19.2381V7.50476H49.5457V27.5429H46.3237L45.9825 24.6857H45.7172C45.237 25.4222 44.6684 26.0317 44.0114 26.5143C43.3543 26.9968 42.6215 27.3651 41.8128 27.6191C41.0294 27.873 40.1575 28 39.1972 28Z" fill="white"/>
<path d="M54.2141 27.5429V7.50476H57.474L57.8152 10.3619H58.0805C58.5354 9.6254 59.0535 9.01587 59.6347 8.53333C60.2412 8.0508 60.9109 7.68254 61.6437 7.42857C62.4019 7.1746 63.2105 7.04762 64.0697 7.04762C65.308 7.04762 66.382 7.30159 67.2918 7.80953C68.2268 8.31746 68.9344 9.16825 69.4146 10.3619H69.6799C70.1348 9.65079 70.6655 9.05397 71.272 8.57143C71.8785 8.06349 72.5608 7.68254 73.3189 7.42857C74.1023 7.1746 74.9363 7.04762 75.8208 7.04762C77.0085 7.04762 78.0572 7.26349 78.967 7.69524C79.8767 8.10159 80.597 8.8 81.1277 9.79048C81.6583 10.7556 81.9237 12.0508 81.9237 13.6762V27.5429H77.9814V14.4C77.9814 13.6381 77.893 13.0159 77.7161 12.5333C77.5392 12.0254 77.2991 11.6317 76.9958 11.3524C76.6926 11.0476 76.3262 10.8317 75.8966 10.7048C75.467 10.5778 74.9994 10.5143 74.494 10.5143C73.6601 10.5143 72.9146 10.7429 72.2575 11.2C71.6005 11.6317 71.0698 12.2413 70.6655 13.0286C70.2611 13.8159 70.059 14.7429 70.059 15.8095V27.5429H66.1167V14.4C66.1167 13.6381 66.0282 13.0159 65.8513 12.5333C65.6744 12.0254 65.4344 11.6317 65.1311 11.3524C64.8279 11.0476 64.4614 10.8317 64.0318 10.7048C63.6022 10.5778 63.1474 10.5143 62.6672 10.5143C61.8333 10.5143 61.0751 10.7429 60.3928 11.2C59.7105 11.6317 59.1672 12.2413 58.7628 13.0286C58.3585 13.8159 58.1563 14.7429 58.1563 15.8095V27.5429H54.2141Z" fill="white"/>
<path d="M96.4131 28C95.099 28 93.9113 27.7333 92.8499 27.2C91.7885 26.6667 90.9166 25.8667 90.2343 24.8H89.969L89.6278 27.5429H86.4058V0H90.348V9.94286H90.5755C91.0051 9.28254 91.5105 8.73651 92.0918 8.30476C92.6982 7.87302 93.3806 7.55556 94.1387 7.35238C94.8968 7.14921 95.7181 7.04762 96.6026 7.04762C98.1189 7.04762 99.4582 7.41587 100.621 8.15238C101.783 8.88889 102.68 10.019 103.312 11.5429C103.969 13.0667 104.298 15.0349 104.298 17.4476C104.298 19.9111 103.982 21.9175 103.35 23.4667C102.718 25.0159 101.808 26.1587 100.621 26.8952C99.4582 27.6317 98.0557 28 96.4131 28ZM95.3138 24.5714C96.451 24.5714 97.3734 24.3429 98.081 23.8857C98.8138 23.4286 99.3572 22.7175 99.711 21.7524C100.065 20.7619 100.242 19.4794 100.242 17.9048V17.219C100.242 15.6444 100.065 14.3619 99.711 13.3714C99.3824 12.381 98.8517 11.6571 98.1189 11.2C97.386 10.7175 96.4257 10.4762 95.238 10.4762C94.5051 10.4762 93.8354 10.6032 93.2289 10.8571C92.6224 11.1111 92.1044 11.5175 91.6748 12.0762C91.2452 12.6095 90.9166 13.3079 90.6892 14.1714C90.4618 15.0349 90.348 16.0762 90.348 17.2952V17.8286C90.348 19.2762 90.5123 20.5079 90.8408 21.5238C91.1946 22.5143 91.7379 23.2762 92.4708 23.8095C93.2037 24.3175 94.1513 24.5714 95.3138 24.5714Z" fill="white"/>
<path d="M115.82 27.5429V1.40952H128.784C130.628 1.40952 132.157 1.75238 133.37 2.4381C134.583 3.12381 135.493 4.07619 136.1 5.29524C136.731 6.48889 137.047 7.91111 137.047 9.5619C137.047 11.2127 136.719 12.673 136.062 13.9429C135.405 15.1873 134.444 16.1524 133.181 16.8381C131.942 17.5238 130.426 17.8667 128.632 17.8667H120.065V27.5429H115.82ZM120.065 14.2095H128.442C129.782 14.2095 130.831 13.8032 131.589 12.9905C132.372 12.1778 132.764 11.0476 132.764 9.6C132.764 8.63492 132.6 7.82222 132.271 7.16191C131.942 6.47619 131.462 5.95556 130.831 5.6C130.199 5.24445 129.403 5.06667 128.442 5.06667H120.065V14.2095Z" fill="white"/>
<path d="M140.151 27.5429V7.50476H143.411L143.752 10.7429H143.98C144.207 10.1079 144.498 9.51111 144.851 8.95238C145.23 8.39365 145.711 7.93651 146.292 7.58095C146.898 7.2254 147.631 7.04762 148.49 7.04762C148.895 7.04762 149.249 7.08571 149.552 7.16191C149.88 7.2381 150.133 7.30159 150.31 7.35238V11.0857H148.983C148.175 11.0857 147.454 11.2127 146.823 11.4667C146.216 11.7206 145.698 12.1016 145.268 12.6095C144.864 13.0921 144.561 13.6889 144.359 14.4C144.182 15.1111 144.093 15.9111 144.093 16.8V27.5429H140.151Z" fill="white"/>
<path d="M160.955 28C158.883 28 157.127 27.6317 155.686 26.8952C154.271 26.1333 153.197 24.9778 152.464 23.4286C151.756 21.8794 151.403 19.9111 151.403 17.5238C151.403 15.1111 151.756 13.1429 152.464 11.619C153.197 10.0698 154.271 8.92698 155.686 8.19048C157.127 7.42857 158.883 7.04762 160.955 7.04762C163.078 7.04762 164.847 7.42857 166.262 8.19048C167.677 8.92698 168.739 10.0698 169.446 11.619C170.179 13.1429 170.545 15.1111 170.545 17.5238C170.545 19.9111 170.179 21.8794 169.446 23.4286C168.739 24.9778 167.677 26.1333 166.262 26.8952C164.847 27.6317 163.078 28 160.955 28ZM160.955 24.7238C162.219 24.7238 163.255 24.4825 164.063 24C164.872 23.4921 165.466 22.7302 165.845 21.7143C166.249 20.6984 166.452 19.4159 166.452 17.8667V17.181C166.452 15.6317 166.249 14.3492 165.845 13.3333C165.466 12.3175 164.872 11.5683 164.063 11.0857C163.255 10.5778 162.219 10.3238 160.955 10.3238C159.717 10.3238 158.693 10.5778 157.885 11.0857C157.076 11.5683 156.47 12.3175 156.065 13.3333C155.686 14.3492 155.497 15.6317 155.497 17.181V17.8667C155.497 19.4159 155.686 20.6984 156.065 21.7143C156.47 22.7302 157.076 23.4921 157.885 24C158.693 24.4825 159.717 24.7238 160.955 24.7238Z" fill="white"/>
</svg>
